<?xml version="1.0" encoding="iso-8859-1"?>
<!-- Generator: Adobe Illustrator 19.0.0, SVG Export Plug-In . SVG Version: 6.00 Build 0)  -->
<svg xmlns="http://www.w3.org/2000/svg" xmlns:xlink="http://www.w3.org/1999/xlink" version="1.1" id="Capa_1" x="0px" y="0px" viewBox="0 0 462.5 462.5" style="enable-background:new 0 0 462.5 462.5;" xml:space="preserve" width="512" height="512">
<g>
	<path style="fill:#3E8067;" d="M290.942,0c-18.049,0-34.862,6.438-47.345,18.128c-12.799,11.986-19.847,28.438-19.847,46.323   v48.159h15V64.451c0-28.192,22.438-49.451,52.191-49.451c4.143,0,7.5-3.358,7.5-7.5S295.085,0,290.942,0z"/>
	<path style="fill:#5DC09A;" d="M315.9,110.54c-9.2-2.91-19.15-3.53-28.97-1.88l-31.19,88.84l43.17-20   C317.67,158.74,322.87,132.53,315.9,110.54z"/>
	<path style="fill:#6CDFB4;" d="M286.93,108.66c4.56,21.97,1.13,50.11-11.19,68.84l-64.49,20l20-133.05   c18.65,9.67,33.25,27.22,40.26,48.74C276.53,111.05,281.71,109.53,286.93,108.66z"/>
	<path style="fill:#7BFFCD;" d="M231.249,64.45V197.5l-67.66-20c-18.76-18.76-23.96-44.97-16.99-66.96   c14.09-4.46,29.91-3.53,44.4,2.65C197.999,91.67,212.599,74.12,231.249,64.45z"/>
	<path style="fill:#FF3B3B;" d="M310.42,177.5h-16.67l26.14,143.22l37.14-29.53l11-24.06c3.66-8.01,5.72-16.91,5.72-26.3   C373.75,205.86,345.4,177.5,310.42,177.5z"/>
	<path style="fill:#FF6761;" d="M152.08,177.5h141.67c27.62,0,50,28.36,50,63.33c0,9.39-1.63,18.29-4.52,26.3l-19.34,53.59   l-88.64,70.47l-125.78-100l-11-24.06c-3.66-8.01-5.72-16.91-5.72-26.3C88.75,205.86,117.11,177.5,152.08,177.5L152.08,177.5z"/>
	<path style="fill:#864941;" d="M327.54,299.52l-95.19,162.97c29.39-0.43,54.6-18.021,66.12-43.2l58.56-128.1   C342.6,291.19,334.8,295.19,327.54,299.52z"/>
	<path style="fill:#B26156;" d="M327.54,299.52l-43.22,119.77c-9.07,25.09-28.87,42.65-51.97,43.2c-0.36,0.01-0.73,0.01-1.1,0.01   c-29.86,0-55.56-17.72-67.21-43.21l-58.57-128.1c31.44,0,31.44,19,62.89,19c31.44,0,31.44-19,62.89-19c31.44,0,31.44,19,62.89,19   C311.16,310.19,318.97,304.63,327.54,299.52z"/>
	<path style="fill:#FF9387;" d="M277.251,267.183c-4.143,0-7.5-3.358-7.5-7.5v-10c0-4.142,3.357-7.5,7.5-7.5s7.5,3.358,7.5,7.5v10   C284.751,263.825,281.394,267.183,277.251,267.183z"/>
	<path style="fill:#FF9387;" d="M155.25,247.183c-4.142,0-7.5-3.358-7.5-7.5v-10c0-4.142,3.358-7.5,7.5-7.5s7.5,3.358,7.5,7.5v10   C162.75,243.825,159.393,247.183,155.25,247.183z"/>
	<path style="fill:#FF9387;" d="M307.251,237.183c-4.143,0-7.5-3.358-7.5-7.5v-10c0-4.142,3.357-7.5,7.5-7.5s7.5,3.358,7.5,7.5v10   C314.751,233.825,311.394,237.183,307.251,237.183z"/>
</g>
</svg>
